<svg width="1000" height="1000" viewBox="0 0 1000 1000" fill="none" xmlns="http://www.w3.org/2000/svg">
<path d="M13.764 15.6484C25.9738 9.72046 31.6651 7.87264 45.5971 9.1934C103.189 14.6624 166.788 59.0721 186.639 114.345C193.386 115.251 192.201 115.021 194.213 110.123C198.38 99.9659 198.898 88.2714 204.51 76.1923C238.386 3.25309 354.169 -25.1649 415.249 25.9292C462.582 65.5209 478.866 147.135 422.125 185.865C404.162 198.13 358.873 204.907 350.731 179.199C342.218 152.325 366.848 158.352 376.434 145.858C390.767 127.169 383.607 99.2405 363.978 87.6389C323.965 63.9893 276.534 109.224 271.688 150.471C259.824 251.406 374.237 314.431 457.65 264.137C441.434 307.294 443.699 356.1 466.366 396.684C486.73 433.144 505.285 440.535 529.637 402.785C556.711 360.825 559.47 310.692 542.433 264.137C624.957 313.47 737.092 253.837 728.722 153.534C725.024 109.255 673.642 61.0625 632.179 90.5098C616.26 101.814 612.013 122.084 620.784 139.452C629.401 156.51 667.185 158.991 646.013 186.113C627.704 209.564 580.038 192.115 562.717 172.98C528.631 135.323 540.069 77.5875 569.587 41.2512C625.753 -27.8808 753.481 -5.0869 792.721 72.2611C795.758 78.251 808.141 118.37 813.456 114.358C828.672 70.7357 875.307 31.1998 918.622 17.4342C939.665 10.7436 966.251 3.80496 985.732 16.2188C995.788 89.6789 947.047 155.419 884.69 187.601C883.511 195.228 886.128 191.495 889.677 192.673C959.665 215.82 1005.34 268.167 999.498 347.09C992.596 440.25 865.881 503.764 812.672 419.849C796.82 394.848 797.048 334.738 836.455 351.486C846.678 355.827 847.665 387.364 882.054 382.614C922.794 376.984 923.381 327.062 901.597 299.89C875.258 267.039 822.832 263.442 786.783 279.855C721.407 309.619 701.315 391.872 732.154 454.747C682.204 442.817 625.334 442.569 584.84 478.663C560.433 500.422 571.18 512.519 595.494 529.088C634.389 555.59 688.784 556.923 732.16 543.281C717.296 579.246 713.049 612.965 725.271 650.622C747.555 719.289 840.474 759.073 896.671 703.397C922.054 678.247 926.22 625.329 884.616 616.276C850.104 608.767 845.406 644.639 834.949 648.266C797.672 661.207 799.11 607.434 808.758 584.46C829.017 536.225 894.881 534.96 935.64 555.032C1016.81 595.002 1012.02 698.523 963.59 763.575C944.381 789.376 912.992 797.958 884.733 810.471C946.523 844.848 997.238 907.928 984.757 982.504C968.843 993.225 946.424 988.463 928.609 984.185C880.251 972.571 829.289 930.957 813.468 883.664C800.999 892.11 801.166 911.022 793.252 926.288C761.252 987.998 671.364 1017.91 608.908 988.761C551.044 961.75 519.063 881.81 560.742 827.046C580.457 801.139 654.031 784.626 650.309 833.594C646.969 844.817 620.729 845.611 617.136 868.547C609.741 915.784 660.673 928.731 694.666 905.553C749.357 868.256 732.629 781.427 685.839 744.681C643.445 711.389 594.414 710.162 545.81 730.463C553.89 693.996 556.569 660.934 544.174 624.883C539.205 610.423 516.563 570.137 500.051 570.137C477.427 570.137 452.273 629.118 449.076 648.638C444.403 677.149 448.316 702.901 454.286 730.463C405.082 710.776 357.206 710.955 314.256 744.681C276.756 774.128 257.96 831.603 280.867 875.765C316.435 944.339 404.008 917.347 379.996 861.274C373.298 845.635 352.589 843 349.786 833.594C345.095 792.476 399.916 798.33 423.57 814.111C477.483 850.063 461.545 935.112 417.749 971.951C353.91 1025.65 242.003 997.504 205.621 924.118C203.065 918.965 191.497 879.969 186.633 883.671C169.769 931.646 118.14 974.028 68.8254 984.922C52.7452 988.476 16.227 995.786 13.5789 974.065C5.23941 905.615 58.1526 840.619 115.362 810.483C115.362 806.751 80.9919 797.456 74.0414 794.194C16.0109 766.973 -13.2975 676.337 8.08507 617.554C34.1157 545.972 152.078 507.311 190.145 582.247C199.287 600.241 205.997 642.338 180.75 648.068C155.399 653.822 160.084 634.879 145.782 623.407C106.029 591.535 60.1526 651.949 98.4856 698.157C156.923 768.597 271.071 711.067 281.2 629.794C285.132 598.226 279.805 571.997 267.941 543.288C313.817 557.965 370.823 555.441 409.946 524.251C434.897 504.359 436.323 495.902 411.348 475.786C370.737 443.071 316.484 442.904 267.935 454.753C298.743 391.345 279.379 309.941 213.306 279.862C177.257 263.448 124.831 267.045 98.4918 299.896C76.708 327.068 77.2883 376.99 118.035 382.62C152.417 387.37 153.405 355.839 163.633 351.493C200.17 335.96 203.966 387.854 191.349 413.593C145.047 508.092 -10.779 440.43 0.591298 327.465C8.12211 252.634 41.9367 215.318 110.418 192.673C113.967 191.501 116.584 195.234 115.405 187.601C82.4426 170.35 52.9921 144.828 34.6096 112.163C30.6343 105.1 13.7764 70.004 13.7764 65.0062V15.6484H13.764Z" fill="#C28F1D"/>
</svg>
