<svg xmlns="http://www.w3.org/2000/svg" id="Layer_1" version="1.1" viewBox="0 0 1920 1920">
  <!-- Generator: Adobe Illustrator 29.2.1, SVG Export Plug-In . SVG Version: 2.1.0 Build 116)  -->
  <path d="M1046.1,255.77c191.44-119.82,461.83-39.69,532.01,182.98,65.37,207.4-97.26,389.06-308.15,349.69-202.07-37.73-185.14-395.41,32.55-329.26,43.95,13.35,106.14,71.68,62.33,115.35-35.5,35.38-136.45-52.1-134.43,27.65,2.59,102.44,187.71,102.36,233.41-2.8,90.93-209.2-244.16-372.75-399.84-174.35-72.56,92.48-57.01,257.63,1.04,354.72,120.5,201.57,435.73,142.74,565.68-19.43,32.87-41.03,41.63-77.9,59.54-124.71,10.81-28.26,29.98-1.73,38.5,14.49,25.2,47.99,27.26,124.1-2.44,170.22-12.34,19.17-34.73,30.21-33.47,52.57,38.44-12.89,131.34,53.19,131.17,86.04-.23,44.1-90.48,94.07-131.11,92.07,6.34,21.92,26.43,32.75,37.85,54.04,30.3,56.5,21.25,147.74-23.63,194.86-23.16-2.93-17.47-26.4-23.25-41.18-126.38-323.21-653.53-350.07-667.77,50.06-6.43,180.57,111.44,310.61,298.31,268.64,143.18-32.16,235.01-231.56,95.61-317.81-56.08-34.69-185-18.59-179.85,60.98,5.42,83.74,116.44-32.72,144.93,45.12,29.38,80.28-121.66,127.6-186.34,85.5-68.85-44.82-76.03-161.79-39.16-228.5,99.45-179.94,410.51-78.67,440.99,105.57,44.1,266.6-229.15,455.85-474.39,373.51-10.7-3.59-67.6-36.66-70.1-33.68-4.03,55-15.15,177.98-91.93,172.41-64.48-4.67-81.17-128.17-80.25-178.37-79.44,65.28-230.73,69-324.54,36.8-166.5-57.16-281.9-276.09-192.79-438.48,74-134.87,311.42-190.7,406.93-48.63,39.69,59.03,39.96,170.49-10.27,222.78-68.13,70.93-238.86,14.57-208.31-68.91,27.77-75.88,148.22,40.48,144.85-50.11-3.52-94.7-185.85-102.1-230.44.18-66.48,152.48,80.88,278.5,227.64,269.1,313.74-20.08,270.27-535.21-18.38-568.91-186.32-21.75-363.43,66.24-432.45,242.75-5.78,14.78-.08,38.25-23.25,41.18-45.49-53.51-56.6-127.07-25.55-190.85,11.58-23.79,31.94-34.67,39.77-58.06-55.91-4.86-113.31-35.63-131.12-92.07,19.22-50.07,75.36-88.29,131.17-86.03-3.51-30.27-37.62-47.13-48.9-78.69-14.85-41.57-9.22-96,9.23-135.98,4.49-9.72,27.51-49.86,40.06-31.07,54.74,283.02,527.6,408,649.26,109.18,34.22-84.04,40.74-209.84-6.67-289.84-119.07-200.93-470.45-110.68-420.83,130.06,25.27,122.58,220.45,135.96,239.55,36.73,16.17-84.06-77.89-27.77-103.72-27.15-61.29,1.46-51.54-82.13,3.79-113.94,195.36-112.31,289.08,210.25,103.29,299.11-136.49,65.29-343.66-33.57-363.71-186.69-39.43-301.11,301.82-483.24,545.37-328.84-.19-235,172.1-235.57,172.2,0ZM1087.59,967.8c9.31-10.17-38.61-32.19-46.96-39.03-34.73-28.47-57.78-65.43-80.63-103.39-31.02,56.16-69.39,103.78-127.47,133.58,54.47,34.07,93.81,79.4,127.47,133.4,32.02-46.78,70.54-108.56,127.58-124.56Z" fill="#104772"/>
</svg>