<svg width="46" height="46" viewBox="0 0 46 46" fill="none" xmlns="http://www.w3.org/2000/svg">
<path d="M25.2422 41.3394C30.2276 44.4597 37.269 42.373 39.0966 36.5743C40.799 31.1733 36.5638 26.4425 31.0719 27.4678C25.8096 28.4503 26.2505 37.7649 31.9195 36.0423C33.0641 35.6946 34.6836 34.1756 33.5427 33.0384C32.6182 32.117 29.9893 34.3951 30.0419 32.3183C30.1094 29.6506 34.9302 29.6527 36.1203 32.3912C38.4883 37.8391 29.762 42.0983 25.7078 36.9316C23.8182 34.5233 24.2232 30.2225 25.7349 27.6941C28.8729 22.4449 37.082 23.9769 40.4661 28.2001C41.3221 29.2686 41.5503 30.2287 42.0167 31.4477C42.2982 32.1837 42.7974 31.4928 43.0193 31.0704C43.6755 29.8207 43.7292 27.8386 42.9557 26.6376C42.6344 26.1384 42.0513 25.8509 42.0841 25.2686C43.0852 25.6042 45.5044 23.8834 45.5 23.0279C45.494 21.8795 43.1437 20.5782 42.0857 20.6303C42.2508 20.0595 42.774 19.7774 43.0714 19.223C43.8604 17.7516 43.6247 15.3756 42.456 14.1485C41.8529 14.2248 42.001 14.836 41.8505 15.2209C38.5594 23.6378 24.8315 24.3373 24.4607 13.9173C24.2932 9.21492 27.3628 5.82846 32.2292 6.92143C35.9578 7.75893 38.3492 12.9516 34.719 15.1977C33.2586 16.1011 29.9013 15.6819 30.0354 13.6097C30.1766 11.429 33.0677 14.4618 33.8096 12.4347C34.5747 10.3441 30.6414 9.1118 28.957 10.2082C27.1641 11.3753 26.9771 14.4214 27.9372 16.1587C30.5271 20.8446 38.6276 18.2074 39.4214 13.4095C40.5698 6.46675 33.4539 1.53836 27.0674 3.68263C26.7888 3.77612 25.307 4.63732 25.2419 4.55972C25.137 3.12742 24.8474 -0.075181 22.8479 0.0698711C21.1687 0.191486 20.7341 3.40763 20.7581 4.71492C18.6893 3.01492 14.7495 2.91805 12.3065 3.75659C7.97057 5.24513 4.96536 10.9464 7.28594 15.1753C9.21302 18.6876 15.3958 20.1415 17.8831 16.4417C18.9167 14.9045 18.9237 12.0019 17.6156 10.6402C15.8414 8.79305 11.3953 10.2608 12.1909 12.4347C12.9141 14.4108 16.0508 11.3805 15.963 13.7397C15.8714 16.2058 11.1232 16.3985 9.96198 13.735C8.23073 9.76414 12.0682 6.48237 15.8901 6.72716C24.0604 7.25008 22.9284 20.6649 15.4115 21.5425C10.5594 22.1089 5.94714 19.8175 4.14974 15.2209C3.99922 14.836 4.14766 14.2248 3.54427 14.1485C2.35964 15.542 2.07031 17.4576 2.87891 19.1186C3.18047 19.7381 3.71068 20.0214 3.91458 20.6306C2.45859 20.7571 0.963802 21.5584 0.5 23.0282C1.00052 24.3321 2.4625 25.3274 3.91589 25.2686C3.82448 26.0569 2.9362 26.4959 2.64245 27.3178C2.25573 28.4003 2.40234 29.8178 2.88281 30.8589C2.99974 31.1121 3.59922 32.1574 3.92604 31.668C5.35156 24.2977 17.6656 21.043 20.8339 28.8248C21.725 31.0134 21.8948 34.2894 20.6602 36.3727C17.5594 41.6053 8.40885 39.255 9.70104 32.9858C10.3591 29.7936 15.4419 29.4451 15.9393 32.0292C16.3604 34.2183 13.9109 32.7524 13.2383 32.7363C11.6422 32.6983 11.8961 34.8751 13.337 35.7035C18.4245 38.6282 20.8651 30.2282 16.0268 27.9141C12.4724 26.2139 7.07734 28.7884 6.55521 32.7759C5.52839 40.6173 14.4151 45.3602 20.7576 41.3394C20.7526 47.4592 25.2393 47.474 25.2419 41.3394H25.2422ZM26.3227 22.797C26.5651 23.0618 25.3172 23.6352 25.0997 23.8134C24.1953 24.5548 23.5951 25.5173 23 26.5058C22.1922 25.0433 21.193 23.8032 19.6805 23.0272C21.099 22.1399 22.1234 20.9595 23 19.5532C23.8339 20.7714 24.837 22.3803 26.3224 22.797H26.3227Z" fill="#FFD700"/>
</svg>
