<svg width="54" height="56" viewBox="0 0 54 56" fill="none" xmlns="http://www.w3.org/2000/svg">
<g filter="url(#filter0_d_7_2)">
<path d="M29.2422 43.3394C34.2276 46.4597 41.269 44.373 43.0966 38.5743C44.799 33.1733 40.5638 28.4425 35.0719 29.4678C29.8096 30.4503 30.2505 39.7649 35.9195 38.0423C37.0641 37.6946 38.6836 36.1756 37.5427 35.0384C36.6182 34.117 33.9893 36.3951 34.0419 34.3183C34.1094 31.6506 38.9302 31.6527 40.1203 34.3912C42.4883 39.8391 33.762 44.0983 29.7078 38.9316C27.8182 36.5233 28.2232 32.2225 29.7349 29.6941C32.8729 24.4449 41.082 25.9769 44.4661 30.2001C45.3221 31.2686 45.5503 32.2287 46.0167 33.4477C46.2982 34.1837 46.7974 33.4928 47.0193 33.0704C47.6755 31.8207 47.7292 29.8386 46.9557 28.6376C46.6344 28.1384 46.0513 27.8509 46.0841 27.2686C47.0852 27.6042 49.5044 25.8834 49.5 25.0279C49.494 23.8795 47.1437 22.5782 46.0857 22.6303C46.2508 22.0595 46.774 21.7774 47.0714 21.223C47.8604 19.7516 47.6247 17.3756 46.456 16.1485C45.8529 16.2248 46.001 16.836 45.8505 17.2209C42.5594 25.6378 28.8315 26.3373 28.4607 15.9173C28.2932 11.2149 31.3628 7.82846 36.2292 8.92143C39.9578 9.75893 42.3492 14.9516 38.719 17.1977C37.2586 18.1011 33.9013 17.6819 34.0354 15.6097C34.1766 13.429 37.0677 16.4618 37.8096 14.4347C38.5747 12.3441 34.6414 11.1118 32.957 12.2082C31.1641 13.3753 30.9771 16.4214 31.9372 18.1587C34.5271 22.8446 42.6276 20.2074 43.4214 15.4095C44.5698 8.46675 37.4539 3.53836 31.0674 5.68263C30.7888 5.77612 29.307 6.63732 29.2419 6.55972C29.137 5.12742 28.8474 1.92482 26.8479 2.06987C25.1687 2.19149 24.7341 5.40763 24.7581 6.71492C22.6893 5.01492 18.7495 4.91805 16.3065 5.75659C11.9706 7.24513 8.96536 12.9464 11.2859 17.1753C13.213 20.6876 19.3958 22.1415 21.8831 18.4417C22.9167 16.9045 22.9237 14.0019 21.6156 12.6402C19.8414 10.793 15.3953 12.2608 16.1909 14.4347C16.9141 16.4108 20.0508 13.3805 19.963 15.7397C19.8714 18.2058 15.1232 18.3985 13.962 15.735C12.2307 11.7641 16.0682 8.48237 19.8901 8.72716C28.0604 9.25008 26.9284 22.6649 19.4115 23.5425C14.5594 24.1089 9.94714 21.8175 8.14974 17.2209C7.99922 16.836 8.14766 16.2248 7.54427 16.1485C6.35964 17.542 6.07031 19.4576 6.87891 21.1186C7.18047 21.7381 7.71068 22.0214 7.91458 22.6306C6.45859 22.7571 4.9638 23.5584 4.5 25.0282C5.00052 26.3321 6.4625 27.3274 7.91589 27.2686C7.82448 28.0569 6.9362 28.4959 6.64245 29.3178C6.25573 30.4003 6.40234 31.8178 6.88281 32.8589C6.99974 33.1121 7.59922 34.1574 7.92604 33.668C9.35156 26.2977 21.6656 23.043 24.8339 30.8248C25.725 33.0134 25.8948 36.2894 24.6602 38.3727C21.5594 43.6053 12.4089 41.255 13.701 34.9858C14.3591 31.7936 19.4419 31.4451 19.9393 34.0292C20.3604 36.2183 17.9109 34.7524 17.2383 34.7363C15.6422 34.6983 15.8961 36.8751 17.337 37.7035C22.4245 40.6282 24.8651 32.2282 20.0268 29.9141C16.4724 28.2139 11.0773 30.7884 10.5552 34.7759C9.52839 42.6173 18.4151 47.3602 24.7576 43.3394C24.7526 49.4592 29.2393 49.474 29.2419 43.3394H29.2422ZM30.3227 24.797C30.5651 25.0618 29.3172 25.6352 29.0997 25.8134C28.1953 26.5548 27.5951 27.5173 27 28.5058C26.1922 27.0433 25.193 25.8032 23.6805 25.0272C25.099 24.1399 26.1234 22.9595 27 21.5532C27.8339 22.7714 28.837 24.3803 30.3224 24.797H30.3227Z" fill="#FFD700"/>
</g>
<defs>
<filter id="filter0_d_7_2" x="-2" y="0" width="58" height="58" filterUnits="userSpaceOnUse" color-interpolation-filters="sRGB">
<feFlood flood-opacity="0" result="BackgroundImageFix"/>
<feColorMatrix in="SourceAlpha" type="matrix" values="0 0 0 0 0 0 0 0 0 0 0 0 0 0 0 0 0 0 127 0" result="hardAlpha"/>
<feOffset dy="4"/>
<feGaussianBlur stdDeviation="2"/>
<feComposite in2="hardAlpha" operator="out"/>
<feColorMatrix type="matrix" values="0 0 0 0 0 0 0 0 0 0 0 0 0 0 0 0 0 0 0.25 0"/>
<feBlend mode="normal" in2="BackgroundImageFix" result="effect1_dropShadow_7_2"/>
<feBlend mode="normal" in="SourceGraphic" in2="effect1_dropShadow_7_2" result="shape"/>
</filter>
</defs>
</svg>
