<svg width="84" height="168" viewBox="0 0 84 168" fill="none" xmlns="http://www.w3.org/2000/svg">
<g clip-path="url(#clip0_1_90)">
<path d="M7.53376 22.3799C24.2848 11.8956 47.9439 18.907 54.0846 38.3906C59.8045 56.5381 45.5744 72.4334 27.1215 68.9885C9.44038 65.6871 10.9218 34.3901 29.9696 40.1782C33.8153 41.3464 39.2569 46.4502 35.4235 50.2714C32.3173 53.3671 23.4841 45.7126 23.6609 52.6907C23.8875 61.6542 40.0855 61.6472 44.0843 52.4457C52.0406 34.1407 22.7203 19.8301 9.09827 37.1901C2.74927 45.2821 4.10989 59.7327 9.18927 68.2281C19.733 85.8655 47.3156 80.7179 58.6863 66.528C61.5624 62.9379 62.3289 59.7117 63.896 55.6159C64.8419 53.1431 66.5193 55.4645 67.2648 56.8837C69.4698 61.0829 69.65 67.7425 67.0513 71.778C65.9715 73.4554 64.0124 74.4214 64.1226 76.3779C67.4861 75.25 75.6149 81.032 75.6 83.9064C75.5799 87.7651 67.683 92.1375 64.1279 91.9625C64.6826 93.8805 66.4405 94.8281 67.4398 96.691C70.091 101.635 69.2991 109.618 65.3721 113.741C63.3456 113.485 63.8435 111.431 63.3378 110.138C52.2795 81.8571 6.15389 79.5069 4.90789 114.518C4.34527 130.318 14.6589 141.697 31.01 138.024C43.5383 135.21 51.5734 117.763 39.3759 110.216C34.4689 107.18 23.1884 108.589 23.639 115.552C24.1133 122.879 33.8275 112.689 36.3204 119.5C38.8911 126.524 25.6751 130.665 20.0156 126.981C13.9913 123.059 13.363 112.824 16.5891 106.987C25.291 91.2424 52.5088 100.104 55.1758 116.224C59.0345 139.552 35.1251 156.111 13.6666 148.907C12.7304 148.592 7.75164 145.699 7.53289 145.96C7.18026 150.772 6.20726 161.533 -0.510986 161.046C-6.15298 160.637 -7.61336 149.831 -7.53286 145.438C-14.4839 151.15 -27.7217 151.476 -35.9301 148.658C-50.4989 143.657 -60.5964 124.5 -52.7992 110.291C-46.3242 98.49 -25.55 93.6049 -17.1929 106.036C-13.72 111.201 -13.6964 120.954 -18.0915 125.529C-24.0529 131.736 -38.9917 126.804 -36.3186 119.5C-33.8887 112.86 -23.3494 123.042 -23.6442 115.115C-23.9522 106.829 -39.9061 106.181 -43.8077 115.131C-49.6247 128.473 -36.7307 139.499 -23.8892 138.677C3.56301 136.92 -0.240608 91.8461 -25.4975 88.8974C-41.8005 86.9942 -57.2976 94.6934 -63.3369 110.138C-63.8426 111.431 -63.3439 113.485 -65.3712 113.741C-69.3516 109.059 -70.3237 102.623 -67.6069 97.0419C-66.5936 94.9603 -64.8121 94.0082 -64.127 91.9616C-69.0191 91.5364 -74.0416 88.844 -75.6 83.9055C-73.9182 79.5244 -69.006 76.1801 -64.1226 76.3779C-64.4297 73.7292 -67.4144 72.254 -68.4014 69.4925C-69.7007 65.8551 -69.2081 61.0925 -67.5937 57.5942C-67.2009 56.7437 -65.1866 53.2315 -64.0885 54.8756C-59.2987 79.6399 -17.9235 90.5756 -7.27823 64.4289C-4.28398 57.0754 -3.71348 46.0679 -7.86185 39.0679C-18.2805 21.4865 -49.0262 29.3834 -44.6845 50.4481C-42.4734 61.1739 -25.3951 62.3446 -23.7239 53.662C-22.309 46.3067 -30.5392 51.2321 -32.7994 51.2864C-38.1622 51.4141 -37.3091 44.1 -32.4677 41.3166C-15.3737 31.4895 -7.17323 59.7135 -23.4299 67.4887C-35.3727 73.2016 -53.5001 64.5514 -55.2545 51.1534C-58.7046 24.8062 -28.8452 8.86987 -7.53461 22.3799C-7.55123 1.81737 7.52414 1.76749 7.53289 22.3799H7.53376ZM11.1641 84.6825C11.9788 83.7926 7.78577 81.8659 7.05514 81.2674C4.01627 78.7762 1.99939 75.5422 1.52588e-05 72.2207C-2.71423 77.1347 -6.0716 81.3015 -11.1536 83.909C-6.38748 86.8901 -2.94524 90.8565 1.52588e-05 95.5815C2.80177 91.4882 6.17226 86.0825 11.1633 84.6825H11.1641Z" fill="#104772"/>
</g>
<defs>
<clipPath id="clip0_1_90">
<rect width="84" height="168" fill="white"/>
</clipPath>
</defs>
</svg>
